<?xml version="1.0" encoding="UTF-8" standalone="no"?>
<svg
   xmlns:dc="http://purl.org/dc/elements/1.1/"
   xmlns:cc="http://creativecommons.org/ns#"
   xmlns:rdf="http://www.w3.org/1999/02/22-rdf-syntax-ns#"
   xmlns:svg="http://www.w3.org/2000/svg"
   xmlns="http://www.w3.org/2000/svg"
   id="svg3177"
   version="1.1"
   viewBox="0 0 15.875 15.875001"
   height="15.875mm"
   width="15.875mm">
  <defs
     id="defs3171">
    <filter
       id="filter7886"
       style="color-interpolation-filters:sRGB">
      <feFlood
         id="feFlood7876"
         result="flood"
         flood-color="rgb(29,115,79)"
         flood-opacity="1" />
      <feComposite
         id="feComposite7878"
         result="composite1"
         operator="in"
         in2="SourceGraphic"
         in="flood" />
      <feGaussianBlur
         id="feGaussianBlur7880"
         result="blur"
         stdDeviation="0.1"
         in="composite1" />
      <feOffset
         id="feOffset7882"
         result="offset"
         dy="0"
         dx="-2.77556e-17" />
      <feComposite
         id="feComposite7884"
         result="composite2"
         operator="over"
         in2="offset"
         in="SourceGraphic" />
    </filter>
    <filter
       id="filter7898"
       style="color-interpolation-filters:sRGB">
      <feFlood
         id="feFlood7888"
         result="flood"
         flood-color="rgb(29,115,79)"
         flood-opacity="1" />
      <feComposite
         id="feComposite7890"
         result="composite1"
         operator="in"
         in2="SourceGraphic"
         in="flood" />
      <feGaussianBlur
         id="feGaussianBlur7892"
         result="blur"
         stdDeviation="0.1"
         in="composite1" />
      <feOffset
         id="feOffset7894"
         result="offset"
         dy="0"
         dx="-2.77556e-17" />
      <feComposite
         id="feComposite7896"
         result="composite2"
         operator="over"
         in2="offset"
         in="SourceGraphic" />
    </filter>
    <filter
       id="filter7910"
       style="color-interpolation-filters:sRGB">
      <feFlood
         id="feFlood7900"
         result="flood"
         flood-color="rgb(29,115,79)"
         flood-opacity="1" />
      <feComposite
         id="feComposite7902"
         result="composite1"
         operator="in"
         in2="SourceGraphic"
         in="flood" />
      <feGaussianBlur
         id="feGaussianBlur7904"
         result="blur"
         stdDeviation="0.1"
         in="composite1" />
      <feOffset
         id="feOffset7906"
         result="offset"
         dy="0"
         dx="-2.77556e-17" />
      <feComposite
         id="feComposite7908"
         result="composite2"
         operator="over"
         in2="offset"
         in="SourceGraphic" />
    </filter>
    <clipPath
       clipPathUnits="userSpaceOnUse"
       id="clipPath3049">
      <circle
         style="opacity:1;fill:#00ff00;fill-opacity:1;stroke:none;stroke-width:0;stroke-miterlimit:4;stroke-dasharray:none;stroke-opacity:1;paint-order:normal"
         id="circle3051"
         cx="56.065796"
         cy="65.759171"
         r="7.9375" />
    </clipPath>
  </defs>
  <metadata
     id="metadata3174">
    <rdf:RDF>
      <cc:Work
         rdf:about="">
        <dc:format>image/svg+xml</dc:format>
        <dc:type
           rdf:resource="http://purl.org/dc/dcmitype/StillImage" />
        <dc:title></dc:title>
      </cc:Work>
    </rdf:RDF>
  </metadata>
  <g
     transform="translate(-24.388145,-38.030384)"
     id="layer1">
    <path
       id="path3024"
       transform="matrix(0.26458334,0,0,0.26458334,24.388145,38.030384)"
       d="M 30 0 A 29.999999 29.999999 0 0 0 4.0605469 14.984375 L 25.943359 14.984375 L 36.335938 14.984375 C 41.155905 14.984375 44.874853 16.216883 47.490234 18.681641 C 50.119309 21.146397 51.433594 24.707629 51.433594 29.363281 C 51.433594 34.374953 50.049208 38.236033 47.283203 40.947266 C 44.530891 43.658498 40.656183 45.013672 35.658203 45.013672 L 25.943359 45.013672 L 24.197266 45.013672 C 19.199286 45.013672 15.322624 43.658498 12.570312 40.947266 C 9.804308 38.236033 8.421875 34.374953 8.421875 29.363281 C 8.421875 28.987523 8.4301395 28.6193 8.4472656 28.257812 L 16.894531 28.253906 C 16.860028 28.697481 16.84375 29.161969 16.84375 29.650391 C 16.84375 32.594405 17.41814 34.784882 18.568359 36.222656 C 19.71858 37.646738 21.525477 38.362573 23.990234 38.361328 L 25.9375 38.359375 L 25.943359 45.013672 L 25.943359 21.619141 L 17.613281 21.619141 L 8.3710938 21.619141 L 1.2167969 21.619141 A 29.999999 29.999999 0 0 0 0 30 A 29.999999 29.999999 0 0 0 30 60 A 29.999999 29.999999 0 0 0 60 30 A 29.999999 29.999999 0 0 0 30 0 z M 34.056641 21.537109 L 34.056641 38.359375 L 35.863281 38.359375 C 38.328038 38.359375 40.136889 37.646738 41.287109 36.222656 C 42.437329 34.784882 43.011719 32.594406 43.011719 29.650391 C 43.011719 26.898079 42.464588 24.857527 41.369141 23.529297 C 40.287386 22.201067 38.63625 21.537109 36.417969 21.537109 L 34.056641 21.537109 z "
       style="opacity:1;fill:#0057c7;fill-opacity:1;stroke:none;stroke-width:0;stroke-miterlimit:4;stroke-dasharray:none;stroke-opacity:1;paint-order:normal" />
    <g
       id="flowRoot907"
       style="font-style:normal;font-variant:normal;font-weight:normal;font-stretch:normal;font-size:36px;line-height:1.25;font-family:'Open Sans ExtraBold';-inkscape-font-specification:'Open Sans ExtraBold, ';letter-spacing:1px;word-spacing:0px;fill:#000000;fill-opacity:1;stroke:none"
       transform="matrix(0.26458334,0,0,0.26458334,25.626995,36.674269)"
       aria-label="TD">
      <g
         transform="matrix(1.0370671,0,0,1.0370671,-2.7717742,-1.8585451)"
         id="g1265" />
    </g>
  </g>
</svg>
