<?xml version="1.0" standalone="no"?>
<!DOCTYPE svg PUBLIC "-//W3C//DTD SVG 20010904//EN"
 "http://www.w3.org/TR/2001/REC-SVG-20010904/DTD/svg10.dtd">
<svg version="1.0" xmlns="http://www.w3.org/2000/svg"
 width="700.000000pt" height="700.000000pt" viewBox="0 0 700.000000 700.000000"
 preserveAspectRatio="xMidYMid meet">
<metadata>
Created by potrace 1.11, written by Peter Selinger 2001-2013
</metadata>
<g transform="translate(0.000000,700.000000) scale(0.100000,-0.100000)"
fill="#000000" stroke="none">
<path d="M3278 6995 c-2 -1 -38 -5 -80 -9 -90 -7 -212 -23 -283 -36 -27 -5
-65 -12 -84 -15 -19 -3 -37 -7 -40 -9 -3 -2 -24 -7 -46 -10 -22 -4 -89 -20
-150 -36 -697 -188 -1358 -614 -1795 -1159 -19 -24 -40 -48 -45 -55 -56 -59
-275 -387 -275 -410 0 -3 881 -5 1958 -6 1076 0 1980 -2 2007 -5 65 -6 153
-15 185 -20 27 -4 112 -18 120 -20 3 -1 32 -7 65 -14 89 -18 240 -68 323 -107
41 -19 76 -34 78 -34 2 0 44 -25 93 -55 314 -194 517 -467 616 -830 56 -206
70 -324 70 -595 -1 -242 -11 -362 -49 -535 -17 -82 -69 -253 -93 -305 -71
-160 -140 -278 -222 -380 -217 -271 -568 -476 -941 -549 -239 -46 -230 -46
-1185 -46 -796 0 -1012 4 -1075 20 -8 2 -35 7 -60 10 -25 3 -61 10 -80 15 -19
5 -64 16 -100 25 -232 59 -457 171 -627 313 -239 200 -411 469 -495 772 -18
66 -30 115 -34 140 -2 14 -9 48 -14 75 -25 133 -30 194 -35 393 -3 154 -2 173
13 180 13 6 929 9 963 3 3 -1 6 -74 6 -163 2 -206 10 -284 44 -425 80 -330
260 -509 574 -570 79 -15 415 -26 433 -14 5 3 8 443 8 977 l0 971 -1442 1
-1441 0 -21 -71 c-26 -90 -67 -287 -82 -392 -6 -44 -13 -93 -15 -110 -27 -188
-27 -657 0 -816 2 -13 6 -46 9 -74 9 -78 23 -156 51 -285 23 -107 88 -333 114
-395 5 -11 25 -65 46 -120 50 -132 181 -398 250 -508 30 -49 55 -90 55 -93 0
-3 4 -10 10 -17 5 -7 46 -64 91 -126 189 -268 408 -499 679 -716 92 -74 370
-265 386 -265 4 0 15 -6 23 -14 29 -25 304 -161 431 -213 165 -67 424 -150
563 -179 92 -19 211 -41 272 -49 22 -2 56 -7 75 -10 186 -26 697 -27 837 -1
17 3 104 16 148 21 178 23 499 113 735 206 136 54 413 189 463 226 17 13 35
23 39 23 5 0 14 5 21 10 7 6 62 44 124 84 251 167 495 380 675 590 34 39 64
73 68 76 4 3 44 55 90 115 152 200 284 417 388 638 23 49 42 91 42 93 0 2 11
27 24 56 57 127 151 421 182 573 17 81 54 301 59 350 4 33 9 71 11 85 9 47 11
525 3 605 -15 165 -21 220 -24 225 -2 3 -6 30 -10 60 -9 76 -69 340 -96 425
-12 39 -24 77 -25 86 -6 30 -97 264 -141 364 -208 464 -528 890 -926 1231 -94
80 -368 284 -382 284 -2 0 -35 20 -72 44 -81 52 -289 161 -393 205 -41 18 -93
41 -116 51 -112 51 -461 154 -629 186 -22 4 -47 9 -55 10 -8 2 -40 6 -70 10
-30 3 -58 8 -61 9 -3 2 -35 7 -71 10 -35 4 -78 9 -94 11 -32 5 -541 14 -546 9z"/>
<path d="M3974 3508 l1 -983 130 0 c334 -1 515 54 664 204 75 74 146 186 173
274 18 61 38 137 43 169 3 18 8 40 10 48 18 69 27 392 13 525 -34 331 -165
561 -379 663 -122 59 -207 74 -450 78 l-206 4 1 -982z"/>
</g>
</svg>
